<svg xmlns="http://www.w3.org/2000/svg" viewBox="0 0 100 100">
  <defs>
    <linearGradient id="grad" x1="0%" y1="0%" x2="100%" y2="100%">
      <stop offset="0%" style="stop-color:#f7931a;stop-opacity:1" />
      <stop offset="100%" style="stop-color:#ffab40;stop-opacity:1" />
    </linearGradient>
  </defs>
  <circle cx="50" cy="50" r="48" fill="url(#grad)" />
  <path d="M63.03 40.06c2.02-1.35 3.36-3.48 3.36-6.66 0-5.83-4.73-8.21-10.45-8.21h-12.8v4.9h2.38c3.08 0 3.66 1.45 3.66 3.06v27.35c0 1.62-.58 3.06-3.66 3.06h-2.38v4.9h14.53c6.9 0 11.95-3.32 11.95-9.6 0-5.02-3.44-7.85-6.59-8.9zm-10.23-9.56h4.31c2.81 0 4.73 1.15 4.73 4.22 0 3.07-1.92 4.22-4.73 4.22h-4.31v-8.44zm6.05 32.74h-6.05v-10.45h6.05c3.22 0 5.48 1.45 5.48 5.23-.01 3.77-2.27 5.22-5.48 5.22zM43.25 25.19v4.9h2.38c3.08 0 3.66 1.45 3.66 3.06v27.35c0 1.62-.58 3.06-3.66 3.06h-2.38v4.9H50v-4.9h-2.38c-3.08 0-3.66-1.45-3.66-3.06V33.15c0-1.62.58-3.06 3.66-3.06H50v-4.9h-6.75z" fill="white"/>
  <path d="M52.05 20v5.19M47.95 20v5.19M52.05 74.81V80M47.95 74.81V80" stroke="white" stroke-width="4.9" stroke-linecap="round"/>
</svg>
